# xmcd
#
# Track frame offsets:
#	150
#	9075
#	18503
#	28928
#	41191
#	52966
#	63046
#	72031
#	83064
#	93647
#	103900
#	114595
#
# Disc length: 1654 seconds
#
# Revision: 1
# Processed by: cddbd v1.5.2PL0 Copyright (c) Steve Scherf et al.
# Submitted via: audiograbber 1.83.01
#
DISCID=9406740c
DTITLE=Jim Reeves - Up Through The Years
DYEAR=1965
DGENRE=Country
TTITLE0=I Know One
TTITLE1=Tweedle O'Twill
TTITLE2=Little Ole You
TTITLE3=Bimbo
TTITLE4=Pride Goes Before A Fall
TTITLE5=Ichabod Crane
TTITLE6=Young Hearts
TTITLE7=That's A Sad Affair
TTITLE8=Jimbo Jenkins
TTITLE9=Two Shadows On Your Window
TTITLE10=I'm Hurtin' Inside
TTITLE11=Noointjie Van Die Ou Transvall
EXTD=
EXTT0=
EXTT1=
EXTT2=
EXTT3=
EXTT4=
EXTT5=
EXTT6=
EXTT7=
EXTT8=
EXTT9=
EXTT10=
EXTT11=
PLAYORDER=
